<?xml version="1.0" encoding="utf-8"?>
<!-- Generator: Adobe Illustrator 24.0.1, SVG Export Plug-In . SVG Version: 6.00 Build 0)  -->
<svg version="1.1" id="Layer_1" xmlns="http://www.w3.org/2000/svg" xmlns:xlink="http://www.w3.org/1999/xlink" x="0px" y="0px"
	 viewBox="0 0 500 500" style="enable-background:new 0 0 500 500;" xml:space="preserve">
<style type="text/css">
	.st0{fill:#FFFFFF;stroke:#000000;stroke-miterlimit:10;}
	.st1{fill:#E6E7E8;}
	.st2{fill:#FFFFFF;}
	.st3{fill:none;stroke:#000000;stroke-miterlimit:10;}
	.st4{fill:none;stroke:#231F20;stroke-linecap:round;stroke-miterlimit:10;}
	.st5{fill:#E6E7E8;stroke:#231F20;stroke-linecap:round;stroke-miterlimit:10;}
</style>
<rect x="135.91" y="76.25" class="st0" width="237.35" height="17.96"/>
<rect x="339.9" y="94.21" class="st0" width="20.53" height="280.33"/>
<rect x="171.83" y="374.54" class="st0" width="232.22" height="12.83"/>
<g id="XMLID_1_">
	<g>
		<path class="st1" d="M240.15,119.31c10.76,1.41,19.06,10.62,19.06,21.76c0,12.13-9.82,21.96-21.95,21.96
			c-12.12,0-21.95-9.83-21.95-21.96c0-11.14,8.31-20.35,19.06-21.76v4.8h5.78V119.31z"/>
		<path class="st1" d="M240.15,119.31v4.8h-5.78v-4.8c0.95-0.13,1.91-0.19,2.89-0.19C238.24,119.12,239.2,119.18,240.15,119.31z"/>
		<path class="st2" d="M240.15,94.21v25.1c-0.95-0.13-1.91-0.19-2.89-0.19c-0.98,0-1.94,0.06-2.89,0.19v-25.1H240.15z"/>
	</g>
	<g>
		<polyline class="st3" points="234.37,119.31 234.37,94.21 240.15,94.21 240.15,119.31 		"/>
		<path class="st4" d="M240.15,119.31c10.76,1.41,19.06,10.62,19.06,21.76c0,12.13-9.82,21.96-21.95,21.96
			c-12.12,0-21.95-9.83-21.95-21.96c0-11.14,8.31-20.35,19.06-21.76c0.95-0.13,1.91-0.19,2.89-0.19
			C238.24,119.12,239.2,119.18,240.15,119.31z"/>
	</g>
</g>
<g>
	
		<rect x="174.61" y="184.97" transform="matrix(0.7071 -0.7071 0.7071 0.7071 -71.5412 202.7022)" class="st5" width="68.6" height="5.49"/>
</g>
<g>
	
		<rect x="230.73" y="184.97" transform="matrix(0.7223 0.6916 -0.6916 0.7223 203.4072 -131.1584)" class="st5" width="68.6" height="5.49"/>
</g>
<rect x="232.01" y="162.96" class="st5" width="10.5" height="125.12"/>
</svg>
