<?xml version="1.0" encoding="utf-8"?>
<!-- Generator: Adobe Illustrator 24.0.1, SVG Export Plug-In . SVG Version: 6.00 Build 0)  -->
<svg version="1.1" id="Layer_1" xmlns="http://www.w3.org/2000/svg" xmlns:xlink="http://www.w3.org/1999/xlink" x="0px" y="0px"
	 viewBox="0 0 500 500" style="enable-background:new 0 0 500 500;" xml:space="preserve">
<style type="text/css">
	.st0{fill:#FFFFFF;stroke:#000000;stroke-miterlimit:10;}
	.st1{fill:#E6E7E8;}
	.st2{fill:#FFFFFF;}
	.st3{fill:none;stroke:#000000;stroke-miterlimit:10;}
	.st4{fill:none;stroke:#231F20;stroke-linecap:round;stroke-miterlimit:10;}
	.st5{fill:#E6E7E8;stroke:#231F20;stroke-linecap:round;stroke-miterlimit:10;}
</style>
<rect x="135.91" y="76.25" class="st0" width="237.35" height="17.96"/>
<rect x="339.9" y="94.21" class="st0" width="20.53" height="280.33"/>
<rect x="171.83" y="374.54" class="st0" width="232.22" height="12.83"/>
<g id="XMLID_1_">
	<g>
		<path class="st1" d="M291.7,209.45l-3.8,3.96l-45.39-43.46v-6.99h-1.27l0.35-0.36c0.32-0.06,0.64-0.13,0.95-0.21L291.7,209.45z"/>
		<path class="st1" d="M240.15,119.31c10.76,1.41,19.06,10.62,19.06,21.76c0,10.31-7.09,18.96-16.67,21.32l-0.39-0.38l-0.56,0.59
			c-0.86,0.17-1.74,0.3-2.64,0.36h-3.37c-1.18-0.08-2.33-0.27-3.45-0.54l-0.9-0.9l-0.52,0.51c-8.92-2.78-15.4-11.11-15.4-20.96
			c0-11.14,8.31-20.35,19.06-21.76v4.8h5.78V119.31z"/>
		<path class="st1" d="M242.15,162.01l0.39,0.38c-0.31,0.08-0.63,0.15-0.95,0.21L242.15,162.01z"/>
		<path class="st1" d="M242.51,169.95v118.13h-10.5V168.5l3.1-3.1l-2.44-2.44h2.91c0.55,0.05,1.11,0.07,1.68,0.07
			c0.57,0,1.13-0.02,1.69-0.07h2.29l-2.89,3.01L242.51,169.95z"/>
		<polygon class="st1" points="242.51,162.96 242.51,169.95 238.35,165.97 241.24,162.96 		"/>
		<path class="st1" d="M240.15,119.31v4.8h-5.78v-4.8c0.95-0.13,1.91-0.19,2.89-0.19C238.24,119.12,239.2,119.18,240.15,119.31z"/>
		<path class="st2" d="M240.15,94.21v25.1c-0.95-0.13-1.91-0.19-2.89-0.19c-0.98,0-1.94,0.06-2.89,0.19v-25.1H240.15z"/>
		<path class="st1" d="M235.58,162.96h3.37c-0.56,0.05-1.12,0.07-1.69,0.07C236.69,163.03,236.13,163.01,235.58,162.96z"/>
		<polygon class="st1" points="235.11,165.4 232.01,168.5 232.01,162.96 232.67,162.96 		"/>
		<path class="st1" d="M232.67,162.96h-0.66v5.54l-45.41,45.4l-3.88-3.88l47.99-47.99c0.47,0.15,0.94,0.28,1.42,0.39L232.67,162.96z
			"/>
		<path class="st1" d="M231.23,161.52l0.9,0.9c-0.48-0.11-0.95-0.24-1.42-0.39L231.23,161.52z"/>
	</g>
	<g>
		<polyline class="st3" points="234.37,119.31 234.37,94.21 240.15,94.21 240.15,119.31 		"/>
		<path class="st4" d="M230.71,162.03c-8.92-2.78-15.4-11.11-15.4-20.96c0-11.14,8.31-20.35,19.06-21.76
			c0.95-0.13,1.91-0.19,2.89-0.19c0.98,0,1.94,0.06,2.89,0.19c10.76,1.41,19.06,10.62,19.06,21.76c0,10.31-7.09,18.96-16.67,21.32"
			/>
		<path class="st4" d="M235.58,162.96c-1.18-0.08-2.33-0.27-3.45-0.54"/>
		<path class="st4" d="M241.59,162.6c-0.86,0.17-1.74,0.3-2.64,0.36"/>
		<polyline class="st4" points="232.01,168.5 186.6,213.9 182.72,210.02 230.71,162.03 231.23,161.52 232.13,162.42 232.67,162.96 
					"/>
		<polyline class="st4" points="241.24,162.96 241.59,162.6 242.15,162.01 242.54,162.39 291.7,209.45 287.9,213.41 242.51,169.95 
					"/>
		<polygon class="st4" points="242.51,169.95 242.51,288.08 232.01,288.08 232.01,168.5 232.01,162.96 232.67,162.96 235.58,162.96 
			238.95,162.96 241.24,162.96 242.51,162.96 		"/>
	</g>
</g>
<rect x="172.16" y="311.31" transform="matrix(0.5515 -0.8342 0.8342 0.5515 -167.9737 318.1781)" class="st5" width="79.46" height="7.97"/>
<rect x="225.29" y="309.78" transform="matrix(0.5975 0.8019 -0.8019 0.5975 358.2683 -86.227)" class="st5" width="79.46" height="7.97"/>
<line class="st5" x1="221.95" y1="137.4" x2="230.65" y2="146.1"/>
<line class="st5" x1="230.14" y1="136.94" x2="222.47" y2="146.57"/>
<line class="st5" x1="242.79" y1="137.4" x2="251.49" y2="146.1"/>
<line class="st5" x1="250.97" y1="136.94" x2="243.31" y2="146.57"/>
<line class="st5" x1="230.8" y1="153.91" x2="242.54" y2="153.91"/>
</svg>
